<mxfile host="app.diagrams.net" modified="2023-06-12T01:33:18.310Z" agent="Mozilla/5.0 (Windows NT 10.0; Win64; x64) AppleWebKit/537.36 (KHTML, like Gecko) Chrome/114.0.0.0 Safari/537.36" etag="kRNgqeL-SunMCQratgIf" version="21.3.8" type="google">
  <diagram id="C5RBs43oDa-KdzZeNtuy" name="Page-1">
    <mxGraphModel dx="5607" dy="2530" grid="1" gridSize="10" guides="1" tooltips="1" connect="1" arrows="1" fold="1" page="1" pageScale="1" pageWidth="827" pageHeight="1169" math="0" shadow="0">
      <root>
        <mxCell id="WIyWlLk6GJQsqaUBKTNV-0" />
        <mxCell id="WIyWlLk6GJQsqaUBKTNV-1" parent="WIyWlLk6GJQsqaUBKTNV-0" />
        <mxCell id="fthEgLrmRhwUPKqmsWVO-32" style="edgeStyle=orthogonalEdgeStyle;rounded=0;orthogonalLoop=1;jettySize=auto;html=1;entryX=0;entryY=0.5;entryDx=0;entryDy=0;" parent="WIyWlLk6GJQsqaUBKTNV-1" source="fthEgLrmRhwUPKqmsWVO-31" target="fthEgLrmRhwUPKqmsWVO-33" edge="1">
          <mxGeometry relative="1" as="geometry">
            <mxPoint x="1230" y="140" as="targetPoint" />
          </mxGeometry>
        </mxCell>
        <mxCell id="FGJhTTeki7qaFSnup0Pb-1" value="Gerente" style="shape=umlActor;verticalLabelPosition=bottom;verticalAlign=top;html=1;" parent="WIyWlLk6GJQsqaUBKTNV-1" vertex="1">
          <mxGeometry x="1450" y="206" width="30" height="60" as="geometry" />
        </mxCell>
        <mxCell id="fthEgLrmRhwUPKqmsWVO-35" style="edgeStyle=orthogonalEdgeStyle;rounded=0;orthogonalLoop=1;jettySize=auto;html=1;entryX=0;entryY=0.5;entryDx=0;entryDy=0;" parent="WIyWlLk6GJQsqaUBKTNV-1" source="fthEgLrmRhwUPKqmsWVO-31" target="fthEgLrmRhwUPKqmsWVO-34" edge="1">
          <mxGeometry relative="1" as="geometry" />
        </mxCell>
        <mxCell id="fthEgLrmRhwUPKqmsWVO-38" style="edgeStyle=orthogonalEdgeStyle;rounded=0;orthogonalLoop=1;jettySize=auto;html=1;entryX=0;entryY=0.5;entryDx=0;entryDy=0;" parent="WIyWlLk6GJQsqaUBKTNV-1" target="fthEgLrmRhwUPKqmsWVO-37" edge="1">
          <mxGeometry relative="1" as="geometry">
            <mxPoint x="980" y="180" as="sourcePoint" />
          </mxGeometry>
        </mxCell>
        <mxCell id="fthEgLrmRhwUPKqmsWVO-31" value="Ator Cliente" style="shape=umlActor;verticalLabelPosition=bottom;verticalAlign=top;html=1;" parent="WIyWlLk6GJQsqaUBKTNV-1" vertex="1">
          <mxGeometry x="950" y="150" width="30" height="60" as="geometry" />
        </mxCell>
        <mxCell id="fthEgLrmRhwUPKqmsWVO-33" value="Solicita serviço" style="ellipse;whiteSpace=wrap;html=1;" parent="WIyWlLk6GJQsqaUBKTNV-1" vertex="1">
          <mxGeometry x="1200" y="90" width="140" height="70" as="geometry" />
        </mxCell>
        <mxCell id="fthEgLrmRhwUPKqmsWVO-34" value="Realiza pagamento" style="ellipse;whiteSpace=wrap;html=1;" parent="WIyWlLk6GJQsqaUBKTNV-1" vertex="1">
          <mxGeometry x="1200" y="190" width="140" height="70" as="geometry" />
        </mxCell>
        <mxCell id="fthEgLrmRhwUPKqmsWVO-37" value="AvaliarServiços" style="ellipse;whiteSpace=wrap;html=1;" parent="WIyWlLk6GJQsqaUBKTNV-1" vertex="1">
          <mxGeometry x="1200" y="285" width="140" height="70" as="geometry" />
        </mxCell>
        <mxCell id="fthEgLrmRhwUPKqmsWVO-43" style="edgeStyle=orthogonalEdgeStyle;rounded=0;orthogonalLoop=1;jettySize=auto;html=1;entryX=0;entryY=0.5;entryDx=0;entryDy=0;" parent="WIyWlLk6GJQsqaUBKTNV-1" source="fthEgLrmRhwUPKqmsWVO-39" target="fthEgLrmRhwUPKqmsWVO-42" edge="1">
          <mxGeometry relative="1" as="geometry">
            <Array as="points">
              <mxPoint x="1186" y="440" />
              <mxPoint x="1186" y="510" />
            </Array>
          </mxGeometry>
        </mxCell>
        <mxCell id="fthEgLrmRhwUPKqmsWVO-45" style="edgeStyle=orthogonalEdgeStyle;rounded=0;orthogonalLoop=1;jettySize=auto;html=1;entryX=0;entryY=0.5;entryDx=0;entryDy=0;" parent="WIyWlLk6GJQsqaUBKTNV-1" source="fthEgLrmRhwUPKqmsWVO-39" target="fthEgLrmRhwUPKqmsWVO-44" edge="1">
          <mxGeometry relative="1" as="geometry">
            <Array as="points">
              <mxPoint x="1186" y="440" />
              <mxPoint x="1186" y="595" />
            </Array>
          </mxGeometry>
        </mxCell>
        <mxCell id="fthEgLrmRhwUPKqmsWVO-48" style="edgeStyle=orthogonalEdgeStyle;rounded=0;orthogonalLoop=1;jettySize=auto;html=1;entryX=0;entryY=0.5;entryDx=0;entryDy=0;" parent="WIyWlLk6GJQsqaUBKTNV-1" source="fthEgLrmRhwUPKqmsWVO-39" target="fthEgLrmRhwUPKqmsWVO-47" edge="1">
          <mxGeometry relative="1" as="geometry">
            <Array as="points">
              <mxPoint x="1186" y="440" />
              <mxPoint x="1186" y="765" />
            </Array>
          </mxGeometry>
        </mxCell>
        <mxCell id="_YHFdadktj32IYGYjvhN-3" style="edgeStyle=orthogonalEdgeStyle;rounded=0;orthogonalLoop=1;jettySize=auto;html=1;entryX=0;entryY=0.5;entryDx=0;entryDy=0;" parent="WIyWlLk6GJQsqaUBKTNV-1" source="fthEgLrmRhwUPKqmsWVO-39" target="_YHFdadktj32IYGYjvhN-2" edge="1">
          <mxGeometry relative="1" as="geometry">
            <Array as="points">
              <mxPoint x="1186" y="440" />
              <mxPoint x="1186" y="675" />
            </Array>
          </mxGeometry>
        </mxCell>
        <mxCell id="fthEgLrmRhwUPKqmsWVO-39" value="Ator Atendente" style="shape=umlActor;verticalLabelPosition=bottom;verticalAlign=top;html=1;" parent="WIyWlLk6GJQsqaUBKTNV-1" vertex="1">
          <mxGeometry x="1106" y="410" width="30" height="60" as="geometry" />
        </mxCell>
        <mxCell id="fthEgLrmRhwUPKqmsWVO-42" value="CadastraCliente" style="ellipse;whiteSpace=wrap;html=1;" parent="WIyWlLk6GJQsqaUBKTNV-1" vertex="1">
          <mxGeometry x="1236" y="475" width="140" height="70" as="geometry" />
        </mxCell>
        <mxCell id="fthEgLrmRhwUPKqmsWVO-44" value="Registra pedido" style="ellipse;whiteSpace=wrap;html=1;" parent="WIyWlLk6GJQsqaUBKTNV-1" vertex="1">
          <mxGeometry x="1226" y="560" width="140" height="70" as="geometry" />
        </mxCell>
        <mxCell id="fthEgLrmRhwUPKqmsWVO-47" value="Infoma Cliente sobre Pedido" style="ellipse;whiteSpace=wrap;html=1;" parent="WIyWlLk6GJQsqaUBKTNV-1" vertex="1">
          <mxGeometry x="1226" y="730" width="140" height="70" as="geometry" />
        </mxCell>
        <mxCell id="fthEgLrmRhwUPKqmsWVO-50" style="edgeStyle=orthogonalEdgeStyle;rounded=0;orthogonalLoop=1;jettySize=auto;html=1;entryX=1;entryY=0.5;entryDx=0;entryDy=0;" parent="WIyWlLk6GJQsqaUBKTNV-1" source="fthEgLrmRhwUPKqmsWVO-49" target="fthEgLrmRhwUPKqmsWVO-51" edge="1">
          <mxGeometry relative="1" as="geometry">
            <mxPoint x="1950.0000000000005" y="160" as="targetPoint" />
          </mxGeometry>
        </mxCell>
        <mxCell id="fthEgLrmRhwUPKqmsWVO-55" style="edgeStyle=orthogonalEdgeStyle;rounded=0;orthogonalLoop=1;jettySize=auto;html=1;entryX=1;entryY=0.5;entryDx=0;entryDy=0;" parent="WIyWlLk6GJQsqaUBKTNV-1" source="fthEgLrmRhwUPKqmsWVO-49" target="fthEgLrmRhwUPKqmsWVO-54" edge="1">
          <mxGeometry relative="1" as="geometry">
            <Array as="points">
              <mxPoint x="2050" y="160" />
              <mxPoint x="2050" y="260" />
            </Array>
          </mxGeometry>
        </mxCell>
        <mxCell id="fthEgLrmRhwUPKqmsWVO-49" value="Ator Limpador" style="shape=umlActor;verticalLabelPosition=bottom;verticalAlign=top;html=1;" parent="WIyWlLk6GJQsqaUBKTNV-1" vertex="1">
          <mxGeometry x="2130" y="130" width="30" height="60" as="geometry" />
        </mxCell>
        <mxCell id="fthEgLrmRhwUPKqmsWVO-51" value="Realiza Serviço" style="ellipse;whiteSpace=wrap;html=1;" parent="WIyWlLk6GJQsqaUBKTNV-1" vertex="1">
          <mxGeometry x="1800" y="110" width="140" height="70" as="geometry" />
        </mxCell>
        <mxCell id="fthEgLrmRhwUPKqmsWVO-54" value="RealizaTreinamento" style="ellipse;whiteSpace=wrap;html=1;" parent="WIyWlLk6GJQsqaUBKTNV-1" vertex="1">
          <mxGeometry x="1820" y="225" width="140" height="70" as="geometry" />
        </mxCell>
        <mxCell id="FGJhTTeki7qaFSnup0Pb-3" value="Consultar Empregados" style="ellipse;whiteSpace=wrap;html=1;" parent="WIyWlLk6GJQsqaUBKTNV-1" vertex="1">
          <mxGeometry x="1560" y="90" width="140" height="70" as="geometry" />
        </mxCell>
        <mxCell id="FGJhTTeki7qaFSnup0Pb-4" value="Consultar Relatório Pedidos" style="ellipse;whiteSpace=wrap;html=1;" parent="WIyWlLk6GJQsqaUBKTNV-1" vertex="1">
          <mxGeometry x="1560" y="195" width="140" height="70" as="geometry" />
        </mxCell>
        <mxCell id="FGJhTTeki7qaFSnup0Pb-5" value="Consular Agenda Empregados" style="ellipse;whiteSpace=wrap;html=1;" parent="WIyWlLk6GJQsqaUBKTNV-1" vertex="1">
          <mxGeometry x="1560" y="315" width="140" height="70" as="geometry" />
        </mxCell>
        <mxCell id="FGJhTTeki7qaFSnup0Pb-10" value="" style="endArrow=classic;html=1;rounded=0;entryX=0.043;entryY=0.714;entryDx=0;entryDy=0;entryPerimeter=0;" parent="WIyWlLk6GJQsqaUBKTNV-1" target="FGJhTTeki7qaFSnup0Pb-3" edge="1">
          <mxGeometry width="50" height="50" relative="1" as="geometry">
            <mxPoint x="1494" y="206" as="sourcePoint" />
            <mxPoint x="1544" y="156" as="targetPoint" />
          </mxGeometry>
        </mxCell>
        <mxCell id="FGJhTTeki7qaFSnup0Pb-15" value="" style="endArrow=classic;html=1;rounded=0;entryX=-0.029;entryY=0.6;entryDx=0;entryDy=0;entryPerimeter=0;" parent="WIyWlLk6GJQsqaUBKTNV-1" target="FGJhTTeki7qaFSnup0Pb-4" edge="1">
          <mxGeometry width="50" height="50" relative="1" as="geometry">
            <mxPoint x="1494" y="256" as="sourcePoint" />
            <mxPoint x="1566" y="190" as="targetPoint" />
          </mxGeometry>
        </mxCell>
        <mxCell id="FGJhTTeki7qaFSnup0Pb-16" value="" style="endArrow=classic;html=1;rounded=0;entryX=-0.021;entryY=0.357;entryDx=0;entryDy=0;entryPerimeter=0;" parent="WIyWlLk6GJQsqaUBKTNV-1" target="FGJhTTeki7qaFSnup0Pb-5" edge="1">
          <mxGeometry width="50" height="50" relative="1" as="geometry">
            <mxPoint x="1490" y="280" as="sourcePoint" />
            <mxPoint x="1542" y="240" as="targetPoint" />
          </mxGeometry>
        </mxCell>
        <mxCell id="_YHFdadktj32IYGYjvhN-2" value="Consulta tabelas de serviços" style="ellipse;whiteSpace=wrap;html=1;" parent="WIyWlLk6GJQsqaUBKTNV-1" vertex="1">
          <mxGeometry x="1226" y="640" width="140" height="70" as="geometry" />
        </mxCell>
        <mxCell id="_YHFdadktj32IYGYjvhN-11" style="edgeStyle=orthogonalEdgeStyle;rounded=0;orthogonalLoop=1;jettySize=auto;html=1;endArrow=open;endFill=0;" parent="WIyWlLk6GJQsqaUBKTNV-1" source="_YHFdadktj32IYGYjvhN-10" edge="1">
          <mxGeometry relative="1" as="geometry">
            <mxPoint x="2975" y="200" as="targetPoint" />
          </mxGeometry>
        </mxCell>
        <mxCell id="_YHFdadktj32IYGYjvhN-10" value="" style="strokeWidth=2;html=1;shape=mxgraph.flowchart.start_2;whiteSpace=wrap;fillColor=#000000;" parent="WIyWlLk6GJQsqaUBKTNV-1" vertex="1">
          <mxGeometry x="2950" y="80" width="50" height="50" as="geometry" />
        </mxCell>
        <mxCell id="3LNbtNNSwe3KrDnj0eBh-4" style="edgeStyle=orthogonalEdgeStyle;rounded=0;orthogonalLoop=1;jettySize=auto;html=1;endArrow=open;endFill=0;" parent="WIyWlLk6GJQsqaUBKTNV-1" source="_YHFdadktj32IYGYjvhN-12" target="_YHFdadktj32IYGYjvhN-21" edge="1">
          <mxGeometry relative="1" as="geometry" />
        </mxCell>
        <mxCell id="_YHFdadktj32IYGYjvhN-12" value="" style="strokeWidth=2;html=1;shape=mxgraph.flowchart.decision;whiteSpace=wrap;direction=south;" parent="WIyWlLk6GJQsqaUBKTNV-1" vertex="1">
          <mxGeometry x="2950" y="201" width="50" height="30" as="geometry" />
        </mxCell>
        <mxCell id="_YHFdadktj32IYGYjvhN-14" value="[INICIAR ATENDIMENTO]" style="text;html=1;strokeColor=none;fillColor=none;align=center;verticalAlign=middle;whiteSpace=wrap;rounded=0;" parent="WIyWlLk6GJQsqaUBKTNV-1" vertex="1">
          <mxGeometry x="2795" y="245" width="180" height="40" as="geometry" />
        </mxCell>
        <mxCell id="3LNbtNNSwe3KrDnj0eBh-6" style="edgeStyle=orthogonalEdgeStyle;rounded=0;orthogonalLoop=1;jettySize=auto;html=1;endArrow=open;endFill=0;entryX=0;entryY=0.5;entryDx=0;entryDy=0;entryPerimeter=0;" parent="WIyWlLk6GJQsqaUBKTNV-1" source="_YHFdadktj32IYGYjvhN-21" target="3LNbtNNSwe3KrDnj0eBh-5" edge="1">
          <mxGeometry relative="1" as="geometry">
            <mxPoint x="2975" y="490" as="targetPoint" />
          </mxGeometry>
        </mxCell>
        <mxCell id="_YHFdadktj32IYGYjvhN-21" value="Ref" style="shape=umlFrame;whiteSpace=wrap;html=1;pointerEvents=0;recursiveResize=0;container=1;collapsible=0;width=170;" parent="WIyWlLk6GJQsqaUBKTNV-1" vertex="1">
          <mxGeometry x="2795" y="295" width="360" height="130" as="geometry" />
        </mxCell>
        <mxCell id="3LNbtNNSwe3KrDnj0eBh-3" value="&lt;font style=&quot;font-size: 27px;&quot;&gt;CadastrarClientre&lt;/font&gt;" style="text;html=1;strokeColor=none;fillColor=none;align=center;verticalAlign=middle;whiteSpace=wrap;rounded=0;" parent="_YHFdadktj32IYGYjvhN-21" vertex="1">
          <mxGeometry x="75" y="60" width="210" height="30" as="geometry" />
        </mxCell>
        <mxCell id="3LNbtNNSwe3KrDnj0eBh-11" style="edgeStyle=orthogonalEdgeStyle;rounded=0;orthogonalLoop=1;jettySize=auto;html=1;entryX=0.5;entryY=0;entryDx=0;entryDy=0;entryPerimeter=0;endArrow=open;endFill=0;" parent="WIyWlLk6GJQsqaUBKTNV-1" source="3LNbtNNSwe3KrDnj0eBh-5" target="3LNbtNNSwe3KrDnj0eBh-9" edge="1">
          <mxGeometry relative="1" as="geometry" />
        </mxCell>
        <mxCell id="3LNbtNNSwe3KrDnj0eBh-5" value="" style="strokeWidth=2;html=1;shape=mxgraph.flowchart.decision;whiteSpace=wrap;direction=south;" parent="WIyWlLk6GJQsqaUBKTNV-1" vertex="1">
          <mxGeometry x="2950" y="495" width="50" height="30" as="geometry" />
        </mxCell>
        <mxCell id="3LNbtNNSwe3KrDnj0eBh-8" value="[SOLICITAR]" style="text;html=1;strokeColor=none;fillColor=none;align=center;verticalAlign=middle;whiteSpace=wrap;rounded=0;" parent="WIyWlLk6GJQsqaUBKTNV-1" vertex="1">
          <mxGeometry x="2795" y="530" width="180" height="40" as="geometry" />
        </mxCell>
        <mxCell id="3LNbtNNSwe3KrDnj0eBh-35" style="edgeStyle=orthogonalEdgeStyle;rounded=0;orthogonalLoop=1;jettySize=auto;html=1;entryX=0;entryY=0.5;entryDx=0;entryDy=0;entryPerimeter=0;endArrow=open;endFill=0;" parent="WIyWlLk6GJQsqaUBKTNV-1" source="3LNbtNNSwe3KrDnj0eBh-9" target="3LNbtNNSwe3KrDnj0eBh-34" edge="1">
          <mxGeometry relative="1" as="geometry" />
        </mxCell>
        <mxCell id="3LNbtNNSwe3KrDnj0eBh-9" value="Ref" style="shape=umlFrame;whiteSpace=wrap;html=1;pointerEvents=0;recursiveResize=0;container=1;collapsible=0;width=170;" parent="WIyWlLk6GJQsqaUBKTNV-1" vertex="1">
          <mxGeometry x="2795" y="580" width="360" height="130" as="geometry" />
        </mxCell>
        <mxCell id="3LNbtNNSwe3KrDnj0eBh-10" value="&lt;font style=&quot;font-size: 27px;&quot;&gt;SolicitaServiço&lt;/font&gt;" style="text;html=1;strokeColor=none;fillColor=none;align=center;verticalAlign=middle;whiteSpace=wrap;rounded=0;" parent="3LNbtNNSwe3KrDnj0eBh-9" vertex="1">
          <mxGeometry x="75" y="60" width="210" height="30" as="geometry" />
        </mxCell>
        <mxCell id="3LNbtNNSwe3KrDnj0eBh-26" style="edgeStyle=orthogonalEdgeStyle;rounded=0;orthogonalLoop=1;jettySize=auto;html=1;endArrow=open;endFill=0;entryX=0;entryY=0.5;entryDx=0;entryDy=0;entryPerimeter=0;" parent="WIyWlLk6GJQsqaUBKTNV-1" source="3LNbtNNSwe3KrDnj0eBh-27" target="3LNbtNNSwe3KrDnj0eBh-30" edge="1">
          <mxGeometry relative="1" as="geometry">
            <mxPoint x="2975" y="1025" as="targetPoint" />
          </mxGeometry>
        </mxCell>
        <mxCell id="3LNbtNNSwe3KrDnj0eBh-27" value="Ref" style="shape=umlFrame;whiteSpace=wrap;html=1;pointerEvents=0;recursiveResize=0;container=1;collapsible=0;width=170;" parent="WIyWlLk6GJQsqaUBKTNV-1" vertex="1">
          <mxGeometry x="2795" y="830" width="360" height="130" as="geometry" />
        </mxCell>
        <mxCell id="3LNbtNNSwe3KrDnj0eBh-28" value="&lt;font style=&quot;font-size: 27px;&quot;&gt;ConsultaTabelaDeServiços&lt;/font&gt;" style="text;html=1;strokeColor=none;fillColor=none;align=center;verticalAlign=middle;whiteSpace=wrap;rounded=0;" parent="3LNbtNNSwe3KrDnj0eBh-27" vertex="1">
          <mxGeometry x="75" y="60" width="210" height="30" as="geometry" />
        </mxCell>
        <mxCell id="3LNbtNNSwe3KrDnj0eBh-29" style="edgeStyle=orthogonalEdgeStyle;rounded=0;orthogonalLoop=1;jettySize=auto;html=1;entryX=0.5;entryY=0;entryDx=0;entryDy=0;entryPerimeter=0;endArrow=open;endFill=0;" parent="WIyWlLk6GJQsqaUBKTNV-1" source="3LNbtNNSwe3KrDnj0eBh-30" target="3LNbtNNSwe3KrDnj0eBh-32" edge="1">
          <mxGeometry relative="1" as="geometry" />
        </mxCell>
        <mxCell id="3LNbtNNSwe3KrDnj0eBh-78" style="edgeStyle=orthogonalEdgeStyle;rounded=0;orthogonalLoop=1;jettySize=auto;html=1;entryX=0.5;entryY=1;entryDx=0;entryDy=0;entryPerimeter=0;endArrow=open;endFill=0;" parent="WIyWlLk6GJQsqaUBKTNV-1" source="3LNbtNNSwe3KrDnj0eBh-30" target="_YHFdadktj32IYGYjvhN-12" edge="1">
          <mxGeometry relative="1" as="geometry">
            <Array as="points">
              <mxPoint x="2580" y="1045" />
              <mxPoint x="2580" y="216" />
            </Array>
          </mxGeometry>
        </mxCell>
        <mxCell id="3LNbtNNSwe3KrDnj0eBh-30" value="" style="strokeWidth=2;html=1;shape=mxgraph.flowchart.decision;whiteSpace=wrap;direction=south;" parent="WIyWlLk6GJQsqaUBKTNV-1" vertex="1">
          <mxGeometry x="2950" y="1030" width="50" height="30" as="geometry" />
        </mxCell>
        <mxCell id="3LNbtNNSwe3KrDnj0eBh-31" value="[CONSULTAR]" style="text;html=1;strokeColor=none;fillColor=none;align=center;verticalAlign=middle;whiteSpace=wrap;rounded=0;" parent="WIyWlLk6GJQsqaUBKTNV-1" vertex="1">
          <mxGeometry x="2795" y="1065" width="180" height="40" as="geometry" />
        </mxCell>
        <mxCell id="3LNbtNNSwe3KrDnj0eBh-72" style="edgeStyle=orthogonalEdgeStyle;rounded=0;orthogonalLoop=1;jettySize=auto;html=1;entryX=0;entryY=0.5;entryDx=0;entryDy=0;entryPerimeter=0;endArrow=open;endFill=0;" parent="WIyWlLk6GJQsqaUBKTNV-1" source="3LNbtNNSwe3KrDnj0eBh-32" target="3LNbtNNSwe3KrDnj0eBh-56" edge="1">
          <mxGeometry relative="1" as="geometry" />
        </mxCell>
        <mxCell id="3LNbtNNSwe3KrDnj0eBh-32" value="Ref" style="shape=umlFrame;whiteSpace=wrap;html=1;pointerEvents=0;recursiveResize=0;container=1;collapsible=0;width=170;" parent="WIyWlLk6GJQsqaUBKTNV-1" vertex="1">
          <mxGeometry x="2795" y="1115" width="360" height="130" as="geometry" />
        </mxCell>
        <mxCell id="3LNbtNNSwe3KrDnj0eBh-33" value="&lt;font style=&quot;font-size: 27px;&quot;&gt;RegistraPedido&lt;/font&gt;" style="text;html=1;strokeColor=none;fillColor=none;align=center;verticalAlign=middle;whiteSpace=wrap;rounded=0;" parent="3LNbtNNSwe3KrDnj0eBh-32" vertex="1">
          <mxGeometry x="62.5" y="60" width="235" height="30" as="geometry" />
        </mxCell>
        <mxCell id="3LNbtNNSwe3KrDnj0eBh-36" style="edgeStyle=orthogonalEdgeStyle;rounded=0;orthogonalLoop=1;jettySize=auto;html=1;endArrow=open;endFill=0;" parent="WIyWlLk6GJQsqaUBKTNV-1" source="3LNbtNNSwe3KrDnj0eBh-34" target="3LNbtNNSwe3KrDnj0eBh-27" edge="1">
          <mxGeometry relative="1" as="geometry" />
        </mxCell>
        <mxCell id="3LNbtNNSwe3KrDnj0eBh-76" style="edgeStyle=orthogonalEdgeStyle;rounded=0;orthogonalLoop=1;jettySize=auto;html=1;entryX=0.5;entryY=0;entryDx=0;entryDy=0;entryPerimeter=0;endArrow=open;endFill=0;" parent="WIyWlLk6GJQsqaUBKTNV-1" source="3LNbtNNSwe3KrDnj0eBh-34" target="_YHFdadktj32IYGYjvhN-12" edge="1">
          <mxGeometry relative="1" as="geometry">
            <Array as="points">
              <mxPoint x="3320" y="765" />
              <mxPoint x="3320" y="216" />
            </Array>
          </mxGeometry>
        </mxCell>
        <mxCell id="3LNbtNNSwe3KrDnj0eBh-34" value="" style="strokeWidth=2;html=1;shape=mxgraph.flowchart.decision;whiteSpace=wrap;direction=south;" parent="WIyWlLk6GJQsqaUBKTNV-1" vertex="1">
          <mxGeometry x="2950" y="750" width="50" height="30" as="geometry" />
        </mxCell>
        <mxCell id="3LNbtNNSwe3KrDnj0eBh-37" value="[REGISTRAR]" style="text;html=1;strokeColor=none;fillColor=none;align=center;verticalAlign=middle;whiteSpace=wrap;rounded=0;" parent="WIyWlLk6GJQsqaUBKTNV-1" vertex="1">
          <mxGeometry x="2795" y="770" width="180" height="40" as="geometry" />
        </mxCell>
        <mxCell id="3LNbtNNSwe3KrDnj0eBh-55" style="edgeStyle=orthogonalEdgeStyle;rounded=0;orthogonalLoop=1;jettySize=auto;html=1;endArrow=open;endFill=0;" parent="WIyWlLk6GJQsqaUBKTNV-1" source="3LNbtNNSwe3KrDnj0eBh-56" target="3LNbtNNSwe3KrDnj0eBh-59" edge="1">
          <mxGeometry relative="1" as="geometry" />
        </mxCell>
        <mxCell id="3LNbtNNSwe3KrDnj0eBh-56" value="" style="strokeWidth=2;html=1;shape=mxgraph.flowchart.decision;whiteSpace=wrap;direction=south;" parent="WIyWlLk6GJQsqaUBKTNV-1" vertex="1">
          <mxGeometry x="2950" y="1330" width="50" height="30" as="geometry" />
        </mxCell>
        <mxCell id="3LNbtNNSwe3KrDnj0eBh-57" value="[INFORMACLIENTE]" style="text;html=1;strokeColor=none;fillColor=none;align=center;verticalAlign=middle;whiteSpace=wrap;rounded=0;" parent="WIyWlLk6GJQsqaUBKTNV-1" vertex="1">
          <mxGeometry x="2795" y="1374" width="180" height="40" as="geometry" />
        </mxCell>
        <mxCell id="3LNbtNNSwe3KrDnj0eBh-58" style="edgeStyle=orthogonalEdgeStyle;rounded=0;orthogonalLoop=1;jettySize=auto;html=1;endArrow=open;endFill=0;entryX=0;entryY=0.5;entryDx=0;entryDy=0;entryPerimeter=0;" parent="WIyWlLk6GJQsqaUBKTNV-1" source="3LNbtNNSwe3KrDnj0eBh-59" target="3LNbtNNSwe3KrDnj0eBh-62" edge="1">
          <mxGeometry relative="1" as="geometry">
            <mxPoint x="2975" y="1619" as="targetPoint" />
          </mxGeometry>
        </mxCell>
        <mxCell id="3LNbtNNSwe3KrDnj0eBh-59" value="Ref" style="shape=umlFrame;whiteSpace=wrap;html=1;pointerEvents=0;recursiveResize=0;container=1;collapsible=0;width=170;" parent="WIyWlLk6GJQsqaUBKTNV-1" vertex="1">
          <mxGeometry x="2795" y="1424" width="360" height="130" as="geometry" />
        </mxCell>
        <mxCell id="3LNbtNNSwe3KrDnj0eBh-60" value="&lt;font style=&quot;font-size: 27px;&quot;&gt;InformarClientePedido&lt;/font&gt;" style="text;html=1;strokeColor=none;fillColor=none;align=center;verticalAlign=middle;whiteSpace=wrap;rounded=0;" parent="3LNbtNNSwe3KrDnj0eBh-59" vertex="1">
          <mxGeometry x="75" y="60" width="210" height="30" as="geometry" />
        </mxCell>
        <mxCell id="3LNbtNNSwe3KrDnj0eBh-61" style="edgeStyle=orthogonalEdgeStyle;rounded=0;orthogonalLoop=1;jettySize=auto;html=1;entryX=0.5;entryY=0;entryDx=0;entryDy=0;entryPerimeter=0;endArrow=open;endFill=0;" parent="WIyWlLk6GJQsqaUBKTNV-1" source="3LNbtNNSwe3KrDnj0eBh-62" target="3LNbtNNSwe3KrDnj0eBh-65" edge="1">
          <mxGeometry relative="1" as="geometry" />
        </mxCell>
        <mxCell id="3LNbtNNSwe3KrDnj0eBh-62" value="" style="strokeWidth=2;html=1;shape=mxgraph.flowchart.decision;whiteSpace=wrap;direction=south;" parent="WIyWlLk6GJQsqaUBKTNV-1" vertex="1">
          <mxGeometry x="2950" y="1624" width="50" height="30" as="geometry" />
        </mxCell>
        <mxCell id="3LNbtNNSwe3KrDnj0eBh-63" value="[ALOCAR]" style="text;html=1;strokeColor=none;fillColor=none;align=center;verticalAlign=middle;whiteSpace=wrap;rounded=0;" parent="WIyWlLk6GJQsqaUBKTNV-1" vertex="1">
          <mxGeometry x="2795" y="1659" width="180" height="40" as="geometry" />
        </mxCell>
        <mxCell id="3LNbtNNSwe3KrDnj0eBh-64" style="edgeStyle=orthogonalEdgeStyle;rounded=0;orthogonalLoop=1;jettySize=auto;html=1;entryX=0;entryY=0.5;entryDx=0;entryDy=0;entryPerimeter=0;endArrow=open;endFill=0;" parent="WIyWlLk6GJQsqaUBKTNV-1" source="3LNbtNNSwe3KrDnj0eBh-65" target="3LNbtNNSwe3KrDnj0eBh-70" edge="1">
          <mxGeometry relative="1" as="geometry" />
        </mxCell>
        <mxCell id="3LNbtNNSwe3KrDnj0eBh-82" style="edgeStyle=orthogonalEdgeStyle;rounded=0;orthogonalLoop=1;jettySize=auto;html=1;endArrow=open;endFill=0;" parent="WIyWlLk6GJQsqaUBKTNV-1" source="3LNbtNNSwe3KrDnj0eBh-65" edge="1">
          <mxGeometry relative="1" as="geometry">
            <mxPoint x="2950" y="220" as="targetPoint" />
            <Array as="points">
              <mxPoint x="2550" y="1774" />
              <mxPoint x="2550" y="210" />
              <mxPoint x="2950" y="210" />
            </Array>
          </mxGeometry>
        </mxCell>
        <mxCell id="3LNbtNNSwe3KrDnj0eBh-65" value="Ref" style="shape=umlFrame;whiteSpace=wrap;html=1;pointerEvents=0;recursiveResize=0;container=1;collapsible=0;width=170;" parent="WIyWlLk6GJQsqaUBKTNV-1" vertex="1">
          <mxGeometry x="2795" y="1709" width="360" height="130" as="geometry" />
        </mxCell>
        <mxCell id="3LNbtNNSwe3KrDnj0eBh-66" value="&lt;font style=&quot;font-size: 27px;&quot;&gt;AlocarFuncionario&lt;/font&gt;" style="text;html=1;strokeColor=none;fillColor=none;align=center;verticalAlign=middle;whiteSpace=wrap;rounded=0;" parent="3LNbtNNSwe3KrDnj0eBh-65" vertex="1">
          <mxGeometry x="75" y="60" width="210" height="30" as="geometry" />
        </mxCell>
        <mxCell id="3LNbtNNSwe3KrDnj0eBh-67" value="Ref" style="shape=umlFrame;whiteSpace=wrap;html=1;pointerEvents=0;recursiveResize=0;container=1;collapsible=0;width=170;" parent="WIyWlLk6GJQsqaUBKTNV-1" vertex="1">
          <mxGeometry x="2795" y="1959" width="360" height="130" as="geometry" />
        </mxCell>
        <mxCell id="3LNbtNNSwe3KrDnj0eBh-68" value="&lt;font style=&quot;font-size: 27px;&quot;&gt;RealizarServiço&lt;/font&gt;" style="text;html=1;strokeColor=none;fillColor=none;align=center;verticalAlign=middle;whiteSpace=wrap;rounded=0;" parent="3LNbtNNSwe3KrDnj0eBh-67" vertex="1">
          <mxGeometry x="75" y="60" width="210" height="30" as="geometry" />
        </mxCell>
        <mxCell id="3LNbtNNSwe3KrDnj0eBh-69" style="edgeStyle=orthogonalEdgeStyle;rounded=0;orthogonalLoop=1;jettySize=auto;html=1;endArrow=open;endFill=0;" parent="WIyWlLk6GJQsqaUBKTNV-1" source="3LNbtNNSwe3KrDnj0eBh-70" target="3LNbtNNSwe3KrDnj0eBh-67" edge="1">
          <mxGeometry relative="1" as="geometry" />
        </mxCell>
        <mxCell id="3LNbtNNSwe3KrDnj0eBh-80" style="edgeStyle=orthogonalEdgeStyle;rounded=0;orthogonalLoop=1;jettySize=auto;html=1;entryX=0.5;entryY=0;entryDx=0;entryDy=0;entryPerimeter=0;endArrow=open;endFill=0;" parent="WIyWlLk6GJQsqaUBKTNV-1" source="3LNbtNNSwe3KrDnj0eBh-70" target="_YHFdadktj32IYGYjvhN-12" edge="1">
          <mxGeometry relative="1" as="geometry">
            <Array as="points">
              <mxPoint x="3480" y="1894" />
              <mxPoint x="3480" y="216" />
            </Array>
          </mxGeometry>
        </mxCell>
        <mxCell id="3LNbtNNSwe3KrDnj0eBh-70" value="" style="strokeWidth=2;html=1;shape=mxgraph.flowchart.decision;whiteSpace=wrap;direction=south;" parent="WIyWlLk6GJQsqaUBKTNV-1" vertex="1">
          <mxGeometry x="2950" y="1879" width="50" height="30" as="geometry" />
        </mxCell>
        <mxCell id="3LNbtNNSwe3KrDnj0eBh-71" value="[REALIZAR]" style="text;html=1;strokeColor=none;fillColor=none;align=center;verticalAlign=middle;whiteSpace=wrap;rounded=0;" parent="WIyWlLk6GJQsqaUBKTNV-1" vertex="1">
          <mxGeometry x="2795" y="1899" width="180" height="40" as="geometry" />
        </mxCell>
        <mxCell id="3LNbtNNSwe3KrDnj0eBh-77" value="[NOT REGISTRAR]" style="text;html=1;strokeColor=none;fillColor=none;align=center;verticalAlign=middle;whiteSpace=wrap;rounded=0;" parent="WIyWlLk6GJQsqaUBKTNV-1" vertex="1">
          <mxGeometry x="3010" y="730" width="180" height="40" as="geometry" />
        </mxCell>
        <mxCell id="3LNbtNNSwe3KrDnj0eBh-79" value="[NOT CONSULTAR]" style="text;html=1;strokeColor=none;fillColor=none;align=center;verticalAlign=middle;whiteSpace=wrap;rounded=0;" parent="WIyWlLk6GJQsqaUBKTNV-1" vertex="1">
          <mxGeometry x="2795" y="1010" width="180" height="40" as="geometry" />
        </mxCell>
        <mxCell id="3LNbtNNSwe3KrDnj0eBh-81" value="[NOT REALIZA]" style="text;html=1;strokeColor=none;fillColor=none;align=center;verticalAlign=middle;whiteSpace=wrap;rounded=0;" parent="WIyWlLk6GJQsqaUBKTNV-1" vertex="1">
          <mxGeometry x="2960" y="1859" width="180" height="40" as="geometry" />
        </mxCell>
        <mxCell id="3LNbtNNSwe3KrDnj0eBh-83" value="[NOT ALOCAR]" style="text;html=1;strokeColor=none;fillColor=none;align=center;verticalAlign=middle;whiteSpace=wrap;rounded=0;" parent="WIyWlLk6GJQsqaUBKTNV-1" vertex="1">
          <mxGeometry x="2640" y="1740" width="180" height="40" as="geometry" />
        </mxCell>
        <mxCell id="uXfULHdsgm9DSahWtg2j-0" value="Funcionario" style="swimlane;fontStyle=0;childLayout=stackLayout;horizontal=1;startSize=26;fillColor=none;horizontalStack=0;resizeParent=1;resizeParentMax=0;resizeLast=0;collapsible=1;marginBottom=0;whiteSpace=wrap;html=1;labelBackgroundColor=none;" vertex="1" parent="WIyWlLk6GJQsqaUBKTNV-1">
          <mxGeometry x="-10" y="170" width="140" height="52" as="geometry" />
        </mxCell>
        <mxCell id="uXfULHdsgm9DSahWtg2j-1" style="edgeStyle=orthogonalEdgeStyle;rounded=0;orthogonalLoop=1;jettySize=auto;html=1;endArrow=none;endFill=0;labelBackgroundColor=none;fontColor=default;" edge="1" parent="WIyWlLk6GJQsqaUBKTNV-1" source="uXfULHdsgm9DSahWtg2j-2">
          <mxGeometry relative="1" as="geometry">
            <mxPoint x="60" y="230" as="targetPoint" />
            <Array as="points">
              <mxPoint x="-50" y="270" />
              <mxPoint x="60" y="270" />
            </Array>
          </mxGeometry>
        </mxCell>
        <mxCell id="uXfULHdsgm9DSahWtg2j-2" value="Gerente" style="swimlane;fontStyle=0;childLayout=stackLayout;horizontal=1;startSize=26;fillColor=none;horizontalStack=0;resizeParent=1;resizeParentMax=0;resizeLast=0;collapsible=1;marginBottom=0;whiteSpace=wrap;html=1;labelBackgroundColor=none;" vertex="1" parent="WIyWlLk6GJQsqaUBKTNV-1">
          <mxGeometry x="-110" y="320" width="140" height="52" as="geometry" />
        </mxCell>
        <mxCell id="uXfULHdsgm9DSahWtg2j-3" style="edgeStyle=orthogonalEdgeStyle;rounded=0;orthogonalLoop=1;jettySize=auto;html=1;endArrow=none;endFill=0;labelBackgroundColor=none;fontColor=default;" edge="1" parent="WIyWlLk6GJQsqaUBKTNV-1" source="uXfULHdsgm9DSahWtg2j-4">
          <mxGeometry relative="1" as="geometry">
            <mxPoint x="60" y="230" as="targetPoint" />
            <Array as="points">
              <mxPoint x="190" y="270" />
              <mxPoint x="61" y="270" />
            </Array>
          </mxGeometry>
        </mxCell>
        <mxCell id="uXfULHdsgm9DSahWtg2j-4" value="Limpador" style="swimlane;fontStyle=0;childLayout=stackLayout;horizontal=1;startSize=26;fillColor=none;horizontalStack=0;resizeParent=1;resizeParentMax=0;resizeLast=0;collapsible=1;marginBottom=0;whiteSpace=wrap;html=1;labelBackgroundColor=none;" vertex="1" parent="WIyWlLk6GJQsqaUBKTNV-1">
          <mxGeometry x="120" y="320" width="140" height="52" as="geometry" />
        </mxCell>
        <mxCell id="uXfULHdsgm9DSahWtg2j-5" style="edgeStyle=orthogonalEdgeStyle;rounded=0;orthogonalLoop=1;jettySize=auto;html=1;endArrow=none;endFill=0;labelBackgroundColor=none;fontColor=default;" edge="1" parent="WIyWlLk6GJQsqaUBKTNV-1" source="uXfULHdsgm9DSahWtg2j-6" target="uXfULHdsgm9DSahWtg2j-0">
          <mxGeometry relative="1" as="geometry">
            <Array as="points">
              <mxPoint x="-185" y="170" />
              <mxPoint x="-185" y="190" />
            </Array>
          </mxGeometry>
        </mxCell>
        <mxCell id="uXfULHdsgm9DSahWtg2j-6" value="Cliente" style="swimlane;fontStyle=0;childLayout=stackLayout;horizontal=1;startSize=26;fillColor=none;horizontalStack=0;resizeParent=1;resizeParentMax=0;resizeLast=0;collapsible=1;marginBottom=0;whiteSpace=wrap;html=1;labelBackgroundColor=none;" vertex="1" parent="WIyWlLk6GJQsqaUBKTNV-1">
          <mxGeometry x="-500" y="140" width="140" height="80" as="geometry" />
        </mxCell>
        <mxCell id="uXfULHdsgm9DSahWtg2j-7" style="edgeStyle=orthogonalEdgeStyle;rounded=0;orthogonalLoop=1;jettySize=auto;html=1;entryX=0.5;entryY=1;entryDx=0;entryDy=0;endArrow=none;endFill=0;labelBackgroundColor=none;fontColor=default;" edge="1" parent="WIyWlLk6GJQsqaUBKTNV-1" source="uXfULHdsgm9DSahWtg2j-8" target="uXfULHdsgm9DSahWtg2j-6">
          <mxGeometry relative="1" as="geometry" />
        </mxCell>
        <mxCell id="uXfULHdsgm9DSahWtg2j-8" value="PessoaFisica" style="swimlane;fontStyle=0;childLayout=stackLayout;horizontal=1;startSize=26;fillColor=none;horizontalStack=0;resizeParent=1;resizeParentMax=0;resizeLast=0;collapsible=1;marginBottom=0;whiteSpace=wrap;html=1;labelBackgroundColor=none;" vertex="1" parent="WIyWlLk6GJQsqaUBKTNV-1">
          <mxGeometry x="-640" y="290" width="140" height="52" as="geometry" />
        </mxCell>
        <mxCell id="uXfULHdsgm9DSahWtg2j-9" style="edgeStyle=orthogonalEdgeStyle;rounded=0;orthogonalLoop=1;jettySize=auto;html=1;endArrow=block;endFill=0;entryX=0.25;entryY=1;entryDx=0;entryDy=0;labelBackgroundColor=none;fontColor=default;" edge="1" parent="WIyWlLk6GJQsqaUBKTNV-1" source="uXfULHdsgm9DSahWtg2j-10" target="uXfULHdsgm9DSahWtg2j-6">
          <mxGeometry relative="1" as="geometry">
            <mxPoint x="-430" y="190" as="targetPoint" />
            <Array as="points">
              <mxPoint x="-300" y="240" />
              <mxPoint x="-429" y="240" />
              <mxPoint x="-429" y="230" />
            </Array>
          </mxGeometry>
        </mxCell>
        <mxCell id="uXfULHdsgm9DSahWtg2j-10" value="PessoaJuridica" style="swimlane;fontStyle=0;childLayout=stackLayout;horizontal=1;startSize=26;fillColor=none;horizontalStack=0;resizeParent=1;resizeParentMax=0;resizeLast=0;collapsible=1;marginBottom=0;whiteSpace=wrap;html=1;labelBackgroundColor=none;" vertex="1" parent="WIyWlLk6GJQsqaUBKTNV-1">
          <mxGeometry x="-370" y="290" width="140" height="52" as="geometry" />
        </mxCell>
        <mxCell id="uXfULHdsgm9DSahWtg2j-11" style="edgeStyle=orthogonalEdgeStyle;rounded=0;orthogonalLoop=1;jettySize=auto;html=1;endArrow=block;endFill=0;entryX=0.5;entryY=1;entryDx=0;entryDy=0;labelBackgroundColor=none;fontColor=default;" edge="1" parent="WIyWlLk6GJQsqaUBKTNV-1" source="uXfULHdsgm9DSahWtg2j-12" target="uXfULHdsgm9DSahWtg2j-0">
          <mxGeometry relative="1" as="geometry">
            <mxPoint x="60" y="230" as="targetPoint" />
            <Array as="points">
              <mxPoint x="380" y="270" />
              <mxPoint x="60" y="270" />
            </Array>
          </mxGeometry>
        </mxCell>
        <mxCell id="uXfULHdsgm9DSahWtg2j-12" value="Atendente" style="swimlane;fontStyle=0;childLayout=stackLayout;horizontal=1;startSize=26;fillColor=none;horizontalStack=0;resizeParent=1;resizeParentMax=0;resizeLast=0;collapsible=1;marginBottom=0;whiteSpace=wrap;html=1;labelBackgroundColor=none;" vertex="1" parent="WIyWlLk6GJQsqaUBKTNV-1">
          <mxGeometry x="310" y="320" width="140" height="52" as="geometry" />
        </mxCell>
        <mxCell id="uXfULHdsgm9DSahWtg2j-13" style="edgeStyle=orthogonalEdgeStyle;rounded=0;orthogonalLoop=1;jettySize=auto;html=1;entryX=1;entryY=0.5;entryDx=0;entryDy=0;endArrow=diamondThin;endFill=0;startSize=6;endSize=12;labelBackgroundColor=none;fontColor=default;" edge="1" parent="WIyWlLk6GJQsqaUBKTNV-1" source="uXfULHdsgm9DSahWtg2j-14" target="uXfULHdsgm9DSahWtg2j-15">
          <mxGeometry relative="1" as="geometry" />
        </mxCell>
        <mxCell id="uXfULHdsgm9DSahWtg2j-14" value="Serviço" style="swimlane;fontStyle=0;childLayout=stackLayout;horizontal=1;startSize=26;fillColor=none;horizontalStack=0;resizeParent=1;resizeParentMax=0;resizeLast=0;collapsible=1;marginBottom=0;whiteSpace=wrap;html=1;labelBackgroundColor=none;" vertex="1" parent="WIyWlLk6GJQsqaUBKTNV-1">
          <mxGeometry x="-120" y="463" width="140" height="52" as="geometry" />
        </mxCell>
        <mxCell id="uXfULHdsgm9DSahWtg2j-15" value="Pedido" style="swimlane;fontStyle=0;childLayout=stackLayout;horizontal=1;startSize=26;fillColor=none;horizontalStack=0;resizeParent=1;resizeParentMax=0;resizeLast=0;collapsible=1;marginBottom=0;whiteSpace=wrap;html=1;labelBackgroundColor=none;" vertex="1" parent="WIyWlLk6GJQsqaUBKTNV-1">
          <mxGeometry x="-360" y="463" width="140" height="52" as="geometry" />
        </mxCell>
        <mxCell id="uXfULHdsgm9DSahWtg2j-16" style="edgeStyle=orthogonalEdgeStyle;rounded=0;orthogonalLoop=1;jettySize=auto;html=1;entryX=0.5;entryY=0;entryDx=0;entryDy=0;endArrow=diamondThin;endFill=0;startSize=6;endSize=12;exitX=0.5;exitY=1;exitDx=0;exitDy=0;labelBackgroundColor=none;fontColor=default;" edge="1" parent="WIyWlLk6GJQsqaUBKTNV-1" source="uXfULHdsgm9DSahWtg2j-4" target="uXfULHdsgm9DSahWtg2j-14">
          <mxGeometry relative="1" as="geometry">
            <mxPoint x="-110" y="499" as="sourcePoint" />
            <mxPoint x="-210" y="499" as="targetPoint" />
          </mxGeometry>
        </mxCell>
      </root>
    </mxGraphModel>
  </diagram>
</mxfile>
